{"accessors": [{"bufferView": 0, "byteOffset": 0, "componentType": 5126, "count": 2468, "type": "VEC3", "max": [2.485166072845459, 9.154998779296875, 11.40549087524414], "min": [-0.8686439990997314, 0.9580109715461731, 8.051685333251953]}, {"bufferView": 1, "byteOffset": 0, "componentType": 5126, "count": 2468, "type": "VEC3", "max": [1.0, 1.0, 1.0], "min": [-1.0, -1.0, -1.0]}, {"bufferView": 2, "byteOffset": 0, "componentType": 5126, "count": 2468, "type": "VEC2", "max": [0.9948890209197998, 0.9953280091285706], "min": [0.0004910000134259462, 0.1933940052986145]}, {"bufferView": 3, "byteOffset": 0, "componentType": 5125, "count": 12600, "type": "SCALAR", "max": [2467], "min": [0]}, {"bufferView": 4, "byteOffset": 0, "componentType": 5126, "count": 108, "type": "VEC3", "max": [0.9613919854164124, 10.039005279541016, 10.20571517944336], "min": [0.655131995677948, 9.113025665283203, 9.25146770477295]}, {"bufferView": 5, "byteOffset": 0, "componentType": 5126, "count": 108, "type": "VEC3", "max": [1.0, 1.0, 1.0], "min": [-1.0, -1.0, -1.0]}, {"bufferView": 6, "byteOffset": 0, "componentType": 5126, "count": 108, "type": "VEC2", "max": [0.9670929908752441, 0.3607980012893677], "min": [0.45361700654029846, 0.03463900089263916]}, {"bufferView": 7, "byteOffset": 0, "componentType": 5125, "count": 276, "type": "SCALAR", "max": [107], "min": [0]}, {"bufferView": 8, "byteOffset": 0, "componentType": 5126, "count": 1869, "type": "VEC3", "max": [2.0999999046325684, 7.516031265258789, -11.016600608825684], "min": [-1.3784140348434448, 0.9620910286903381, -14.494993209838867]}, {"bufferView": 9, "byteOffset": 0, "componentType": 5126, "count": 1869, "type": "VEC3", "max": [0.9983585476875305, 1.0, 0.9983586668968201], "min": [-0.9983596205711365, -1.0, -0.9983582496643066]}, {"bufferView": 10, "byteOffset": 0, "componentType": 5126, "count": 1869, "type": "VEC2", "max": [1.5750290155410767, 1.0], "min": [1.4000000192027073e-05, 0.0]}, {"bufferView": 11, "byteOffset": 0, "componentType": 5125, "count": 9840, "type": "SCALAR", "max": [1868], "min": [0]}, {"bufferView": 12, "byteOffset": 0, "componentType": 5126, "count": 888, "type": "VEC3", "max": [2.069011926651001, 2.993972063064575, -2.5872960090637207], "min": [-0.7871649861335754, 0.9543219804763794, -6.079185962677002]}, {"bufferView": 13, "byteOffset": 0, "componentType": 5126, "count": 888, "type": "VEC3", "max": [1.0, 1.0, 1.0], "min": [-1.0, -1.0, -1.0]}, {"bufferView": 14, "byteOffset": 0, "componentType": 5126, "count": 888, "type": "VEC2", "max": [0.9900950193405151, 0.8666219711303711], "min": [0.5654609799385071, 0.007055997848510742]}, {"bufferView": 15, "byteOffset": 0, "componentType": 5125, "count": 4680, "type": "SCALAR", "max": [887], "min": [0]}, {"bufferView": 16, "byteOffset": 0, "componentType": 5126, "count": 1424, "type": "VEC3", "max": [2.944617986679077, 8.195230484008789, -3.791043996810913], "min": [-1.2546870708465576, 2.904529094696045, -4.8754377365112305]}, {"bufferView": 17, "byteOffset": 0, "componentType": 5126, "count": 1424, "type": "VEC3", "max": [0.9999778866767883, 1.0, 1.0], "min": [-1.0, -1.0, -1.0]}, {"bufferView": 18, "byteOffset": 0, "componentType": 5126, "count": 1424, "type": "VEC2", "max": [0.5482860207557678, 0.7644860148429871], "min": [0.00609799986705184, 0.013212978839874268]}, {"bufferView": 19, "byteOffset": 0, "componentType": 5125, "count": 4368, "type": "SCALAR", "max": [1423], "min": [0]}, {"bufferView": 20, "byteOffset": 0, "componentType": 5126, "count": 3919, "type": "VEC3", "max": [2.185312032699585, 7.160183906555176, -7.00978422164917], "min": [-1.3853230476379395, 0.9096410274505615, -10.580416679382324]}, {"bufferView": 21, "byteOffset": 0, "componentType": 5126, "count": 3919, "type": "VEC3", "max": [1.0, 1.0, 1.0], "min": [-1.0, -1.0, -1.0]}, {"bufferView": 22, "byteOffset": 0, "componentType": 5126, "count": 3919, "type": "VEC2", "max": [0.9892169833183289, 0.9746930003166199], "min": [0.0036170000676065683, 0.003157973289489746]}, {"bufferView": 23, "byteOffset": 0, "componentType": 5125, "count": 20112, "type": "SCALAR", "max": [3918], "min": [0]}, {"bufferView": 24, "byteOffset": 0, "componentType": 5126, "count": 3619, "type": "VEC3", "max": [2.165282964706421, 9.02662467956543, 1.7952489852905273], "min": [-1.4594990015029907, 0.8687959909439087, -1.8295650482177734]}, {"bufferView": 25, "byteOffset": 0, "componentType": 5126, "count": 3619, "type": "VEC3", "max": [0.9994809031486511, 1.0, 0.9982764720916748], "min": [-0.999480664730072, -1.0, -0.9982770085334778]}, {"bufferView": 26, "byteOffset": 0, "componentType": 5126, "count": 3619, "type": "VEC2", "max": [0.8844370245933533, 0.983705997467041], "min": [0.008921000175178051, 0.006085991859436035]}, {"bufferView": 27, "byteOffset": 0, "componentType": 5125, "count": 19674, "type": "SCALAR", "max": [3618], "min": [0]}, {"bufferView": 28, "byteOffset": 0, "componentType": 5126, "count": 4740, "type": "VEC3", "max": [2.509592056274414, 9.420515060424805, 6.743640899658203], "min": [-1.2269760370254517, 0.9666489958763123, 3.007072925567627]}, {"bufferView": 29, "byteOffset": 0, "componentType": 5126, "count": 4740, "type": "VEC3", "max": [1.0, 1.0, 1.0], "min": [-1.0, -1.0, -1.0]}, {"bufferView": 30, "byteOffset": 0, "componentType": 5126, "count": 4740, "type": "VEC2", "max": [0.9785839915275574, 0.9888899922370911], "min": [0.004414000082761049, 0.023199021816253662]}, {"bufferView": 31, "byteOffset": 0, "componentType": 5125, "count": 24192, "type": "SCALAR", "max": [4739], "min": [0]}], "asset": {"generator": "Open Asset Import Library (assimp v5.0.5eb040c7)", "version": "2.0"}, "buffers": [{"uri": "BoxTextured.bin", "byteLength": 992088}], "bufferViews": [{"buffer": 0, "byteOffset": 0, "byteLength": 29616, "target": 34962}, {"buffer": 0, "byteOffset": 29616, "byteLength": 29616, "target": 34962}, {"buffer": 0, "byteOffset": 59232, "byteLength": 19744, "target": 34962}, {"buffer": 0, "byteOffset": 78976, "byteLength": 50400, "target": 34963}, {"buffer": 0, "byteOffset": 129376, "byteLength": 1296, "target": 34962}, {"buffer": 0, "byteOffset": 130672, "byteLength": 1296, "target": 34962}, {"buffer": 0, "byteOffset": 131968, "byteLength": 864, "target": 34962}, {"buffer": 0, "byteOffset": 132832, "byteLength": 1104, "target": 34963}, {"buffer": 0, "byteOffset": 133936, "byteLength": 22428, "target": 34962}, {"buffer": 0, "byteOffset": 156364, "byteLength": 22428, "target": 34962}, {"buffer": 0, "byteOffset": 178792, "byteLength": 14952, "target": 34962}, {"buffer": 0, "byteOffset": 193744, "byteLength": 39360, "target": 34963}, {"buffer": 0, "byteOffset": 233104, "byteLength": 10656, "target": 34962}, {"buffer": 0, "byteOffset": 243760, "byteLength": 10656, "target": 34962}, {"buffer": 0, "byteOffset": 254416, "byteLength": 7104, "target": 34962}, {"buffer": 0, "byteOffset": 261520, "byteLength": 18720, "target": 34963}, {"buffer": 0, "byteOffset": 280240, "byteLength": 17088, "target": 34962}, {"buffer": 0, "byteOffset": 297328, "byteLength": 17088, "target": 34962}, {"buffer": 0, "byteOffset": 314416, "byteLength": 11392, "target": 34962}, {"buffer": 0, "byteOffset": 325808, "byteLength": 17472, "target": 34963}, {"buffer": 0, "byteOffset": 343280, "byteLength": 47028, "target": 34962}, {"buffer": 0, "byteOffset": 390308, "byteLength": 47028, "target": 34962}, {"buffer": 0, "byteOffset": 437336, "byteLength": 31352, "target": 34962}, {"buffer": 0, "byteOffset": 468688, "byteLength": 80448, "target": 34963}, {"buffer": 0, "byteOffset": 549136, "byteLength": 43428, "target": 34962}, {"buffer": 0, "byteOffset": 592564, "byteLength": 43428, "target": 34962}, {"buffer": 0, "byteOffset": 635992, "byteLength": 28952, "target": 34962}, {"buffer": 0, "byteOffset": 664944, "byteLength": 78696, "target": 34963}, {"buffer": 0, "byteOffset": 743640, "byteLength": 56880, "target": 34962}, {"buffer": 0, "byteOffset": 800520, "byteLength": 56880, "target": 34962}, {"buffer": 0, "byteOffset": 857400, "byteLength": 37920, "target": 34962}, {"buffer": 0, "byteOffset": 895320, "byteLength": 96768, "target": 34963}], "materials": [{"name": "DefaultMaterial", "pbrMetallicRoughness": {"baseColorFactor": [0.6000000238418579, 0.6000000238418579, 0.6000000238418579, 1.0], "metallicFactor": 0.0}}, {"name": "initialShadingGroup", "pbrMetallicRoughness": {"baseColorFactor": [0.6000000238418579, 0.6000000238418579, 0.6000000238418579, 1.0], "metallicFactor": 0.0}}], "meshes": [{"name": "king_01 king_Model chessPieces_KIT", "primitives": [{"attributes": {"POSITION": 0, "NORMAL": 1, "TEXCOORD_0": 2}, "indices": 3, "material": 1, "mode": 4}]}, {"name": "king_Model chessPieces_KIT cross_01", "primitives": [{"attributes": {"POSITION": 4, "NORMAL": 5, "TEXCOORD_0": 6}, "indices": 7, "material": 1, "mode": 4}]}, {"name": "chessPieces_KIT pawn_Model", "primitives": [{"attributes": {"POSITION": 8, "NORMAL": 9, "TEXCOORD_0": 10}, "indices": 11, "material": 1, "mode": 4}]}, {"name": "chessPieces_KIT knightStand_01 knight_Model", "primitives": [{"attributes": {"POSITION": 12, "NORMAL": 13, "TEXCOORD_0": 14}, "indices": 15, "material": 1, "mode": 4}]}, {"name": "chessPieces_KIT knight_Model knight_02", "primitives": [{"attributes": {"POSITION": 16, "NORMAL": 17, "TEXCOORD_0": 18}, "indices": 19, "material": 1, "mode": 4}]}, {"name": "chessPieces_KIT rook_Model", "primitives": [{"attributes": {"POSITION": 20, "NORMAL": 21, "TEXCOORD_0": 22}, "indices": 23, "material": 1, "mode": 4}]}, {"name": "chessPieces_KIT bishop_Model", "primitives": [{"attributes": {"POSITION": 24, "NORMAL": 25, "TEXCOORD_0": 26}, "indices": 27, "material": 1, "mode": 4}]}, {"name": "chessPieces_KIT queen_Model", "primitives": [{"attributes": {"POSITION": 28, "NORMAL": 29, "TEXCOORD_0": 30}, "indices": 31, "material": 1, "mode": 4}]}], "nodes": [{"name": "input.obj", "children": [1, 2, 3, 4, 5, 6, 7, 8, 9, 10, 11, 12, 13, 14, 15, 16]}, {"name": "default"}, {"name": "king_01 king_Model chessPieces_KIT", "mesh": 0}, {"name": "default_node"}, {"name": "king_Model chessPieces_KIT cross_01", "mesh": 1}, {"name": "default_node_0"}, {"name": "chessPieces_KIT pawn_Model", "mesh": 2}, {"name": "default_node_1"}, {"name": "chessPieces_KIT knightStand_01 knight_Model", "mesh": 3}, {"name": "default_node_2"}, {"name": "chessPieces_KIT knight_Model knight_02", "mesh": 4}, {"name": "default_node_3"}, {"name": "chessPieces_KIT rook_Model", "mesh": 5}, {"name": "default_node_4"}, {"name": "chessPieces_KIT bishop_Model", "mesh": 6}, {"name": "default_node_5"}, {"name": "chessPieces_KIT queen_Model", "mesh": 7}], "scene": 0, "scenes": [{"nodes": [0]}]}